# xmcd CD database file
#
# Track frame offsets:
#	150
#	25129
#	50041
#	72331
#	100733
#	124100
#	152387
#	173434
#	190866
#	207783
#	225255
#	246522
#	269931
#	293171
#
# Disc length: 4327 seconds
#
# Revision: 0
# Processed by: cddbd v1.5PL3 Copyright (c) Steve Scherf et al.
# Submitted via: CDex 1.51
#
DISCID=c210e50e
DTITLE=CHAGE&ASKA - SUPER BEST BOX DISC3+4
DYEAR=1994
DGENRE=Pop
TTITLE0=if
TTITLE1=no no darlin'
TTITLE2=YAH YAH YAH
TTITLE3=夢の番人
TTITLE4=Sons and Daughters
TTITLE5=You are free
TTITLE6=なぜに君は帰らない
TTITLE7=シルバーパラダイス
TTITLE8=ポニーの白い息
TTITLE9=WHITE NIGHT, WHITE MOON
TTITLE10=今宵二人でXimas
TTITLE11=WHITE CHRISTMAS
TTITLE12=星に願いを
TTITLE13=世界にMerry X'mas
EXTD=YEAR: 1994
EXTT0=
EXTT1=
EXTT2=
EXTT3=
EXTT4=
EXTT5=
EXTT6=
EXTT7=
EXTT8=
EXTT9=
EXTT10=
EXTT11=
EXTT12=
EXTT13=
PLAYORDER=
